<svg width="350" height="75" viewBox="0 0 350 75" fill="none" xmlns="http://www.w3.org/2000/svg">
<rect width="350" height="75" fill="white"/>
<rect width="350" height="75" fill="white"/>
<path d="M50.642 40.088H43.466V52.412H51.422C53.6407 52.412 55.3393 51.9093 56.518 50.904C57.7313 49.864 58.338 48.356 58.338 46.38C58.338 44.404 57.662 42.8613 56.31 41.752C54.9927 40.6427 53.1033 40.088 50.642 40.088ZM49.81 24.54H43.466V36.5H49.082C51.89 36.5 53.97 35.9107 55.322 34.732C56.674 33.5533 57.35 32.0973 57.35 30.364C57.35 28.596 56.7087 27.192 55.426 26.152C54.178 25.0773 52.306 24.54 49.81 24.54ZM52.046 56H39.254V20.952H49.81C53.4153 20.952 56.2927 21.784 58.442 23.448C60.626 25.112 61.718 27.348 61.718 30.156C61.718 32.1667 61.146 33.9173 60.002 35.408C58.8927 36.864 57.454 37.7827 55.686 38.164C57.6273 38.476 59.274 39.36 60.626 40.816C62.0127 42.2373 62.706 44.2653 62.706 46.9C62.706 49.5347 61.77 51.7187 59.898 53.452C58.0607 55.1507 55.4433 56 52.046 56ZM71.301 56H66.777L78.997 20.952H84.821L96.833 56H92.309L89.241 46.796H74.421L71.301 56ZM81.909 24.332C81.4237 26.1 79.3264 32.392 75.617 43.208H88.045L81.909 24.332ZM122.752 24.644H113.288V56H109.076V24.644H99.6118V20.952H122.752V24.644ZM130.106 56H125.582L137.802 20.952H143.626L155.638 56H151.114L148.046 46.796H133.226L130.106 56ZM140.714 24.332C140.228 26.1 138.131 32.392 134.422 43.208H146.85L140.714 24.332ZM171.156 42.168H165.696V56H161.484V20.952H170.272C174.328 20.952 177.396 21.9053 179.476 23.812C181.591 25.7187 182.648 28.3533 182.648 31.716C182.579 34.1427 181.938 36.2053 180.724 37.904C179.511 39.6027 177.795 40.7987 175.576 41.492L184.78 56H179.736L171.156 42.168ZM170.532 24.592H165.696V38.58H171C173.392 38.58 175.212 37.9387 176.46 36.656C177.743 35.3387 178.384 33.6573 178.384 31.612C178.384 26.932 175.767 24.592 170.532 24.592ZM194.497 56H190.285V20.952H194.497V56ZM215.196 56H209.84L200.688 20.952H205.108L208.384 33.952L212.7 51.58C214.676 44.3 217.536 34.264 221.28 21.472H225.492L229.34 33.952L234.644 51.736C235.962 45.4613 238.232 35.2 241.456 20.952H245.72L237.504 56H232.096L223.464 27.4C222.459 31.248 219.703 40.7813 215.196 56ZM253.961 56H249.437L261.657 20.952H267.481L279.493 56H274.969L271.901 46.796H257.081L253.961 56ZM264.569 24.332C264.084 26.1 261.987 32.392 258.277 43.208H270.705L264.569 24.332ZM310.768 56H306.556V40.14H289.552V56H285.34V20.952H289.552V36.344H306.556V20.952H310.768V56Z" fill="black"/>
<line x1="38" y1="12.5" x2="312" y2="12.5" stroke="black" stroke-width="3"/>
<path d="M38 65.0522L312 64.5224" stroke="black" stroke-width="3"/>
</svg>
